<?xml version="1.0" encoding="UTF-8" standalone="no"?>
<svg
   xmlns:dc="http://purl.org/dc/elements/1.1/"
   xmlns:cc="http://creativecommons.org/ns#"
   xmlns:rdf="http://www.w3.org/1999/02/22-rdf-syntax-ns#"
   xmlns:svg="http://www.w3.org/2000/svg"
   xmlns="http://www.w3.org/2000/svg"
   xmlns:sodipodi="http://sodipodi.sourceforge.net/DTD/sodipodi-0.dtd"
   xmlns:inkscape="http://www.inkscape.org/namespaces/inkscape"
   sodipodi:docname="loaderlogo.svg"
   inkscape:version="1.0 (4035a4fb49, 2020-05-01)"
   id="svg8"
   version="1.1"
   viewBox="0 0 84.507759 28.235796"
   height="28.235796mm"
   width="84.507759mm">
  <defs
     id="defs2" />
  <sodipodi:namedview
     fit-margin-bottom="0"
     fit-margin-right="0"
     fit-margin-left="0"
     fit-margin-top="0"
     inkscape:window-maximized="0"
     inkscape:window-y="0"
     inkscape:window-x="156"
     inkscape:window-height="1040"
     inkscape:window-width="1260"
     showgrid="false"
     inkscape:document-rotation="0"
     inkscape:current-layer="layer1"
     inkscape:document-units="mm"
     inkscape:cy="-4.5306562"
     inkscape:cx="159.13401"
     inkscape:zoom="0.7"
     inkscape:pageshadow="2"
     inkscape:pageopacity="0.0"
     borderopacity="1.0"
     bordercolor="#666666"
     pagecolor="#ffffff"
     id="base" />
  <metadata
     id="metadata5">
    <rdf:RDF>
      <cc:Work
         rdf:about="">
        <dc:format>image/svg+xml</dc:format>
        <dc:type
           rdf:resource="http://purl.org/dc/dcmitype/StillImage" />
        <dc:title></dc:title>
      </cc:Work>
    </rdf:RDF>
  </metadata>
 
  <g 
     transform="translate(-62.895794,-119.46064)"
     id="layer1"
     inkscape:groupmode="layer"
     inkscape:label="Capa 1">
    <g
       style="font-size:14.1111px;line-height:1.25;font-family:'LIBRARY 3 AM';-inkscape-font-specification:'LIBRARY 3 AM';white-space:pre;inline-size:66.9715;stroke-width:0.264583"
       id="text12"
       transform="matrix(1.9684839,0,0,1.9684839,-85.466889,-92.630468)"
       aria-label="€$CIN">
      <path
         id="path36"
         style="font-size:14.1111px;stroke-width:0.264583"
         d="m 83.299448,117.72698 c -0.698499,0.33867 -1.439332,0.62795 -2.349498,0.62795 -0.96661,0 -1.686276,-0.52917 -2.053165,-1.19945 h 1.770943 l 0.818444,-1.82033 h -5.524496 v -0.59266 h 5.792607 l 0.818444,-1.82034 h -3.795886 c 0.402166,-0.85372 1.100666,-1.46049 2.053165,-1.46049 1.008943,0 1.425221,0.21872 2.173109,0.60677 l 0.839611,-1.85561 c -1.030111,-0.54327 -1.770943,-0.74083 -3.055054,-0.74083 -2.208387,0 -3.66183,1.54517 -4.226274,3.45016 H 75.36901 v 0.59267 h 1.650999 c 0.402166,-1.86266 1.679221,-3.45016 3.767663,-3.45016 0.945444,0 1.552222,0.10583 2.278943,0.43039 l -0.352777,0.76905 c -0.522111,-0.24694 -1.023055,-0.39511 -1.883832,-0.39511 -1.53811,0 -2.525887,1.21355 -2.892776,2.64583 h 3.718275 l -0.282222,0.635 H 75.36901 v 1.778 h 5.19994 l -0.282222,0.635 H 78.00073 c 0.402167,1.36877 1.432277,2.38477 2.94922,2.38477 0.769055,0 1.432277,-0.18344 2.024943,-0.42333 l 0.310444,0.77611 c -0.684388,0.27517 -1.354665,0.45156 -2.391831,0.45156 -2.031999,0 -3.344331,-1.31939 -3.824108,-3.18911 H 75.36901 v 0.59266 h 1.255888 c 0.634999,1.88384 2.130776,3.18911 4.268608,3.18911 1.382888,0 2.18722,-0.28927 3.153831,-0.72672 z" />
      <path
         id="path38"
         style="font-size:14.1111px;stroke-width:0.264583"
         d="m 89.895726,113.32432 -0.197555,0.55739 c 1.686276,0.6985 2.448275,1.7145 2.448275,3.35139 0,0.79022 -0.289277,1.43227 -0.860777,1.86266 -0.444499,0.33867 -1.044221,0.55033 -1.756832,0.62794 v 1.77095 h -0.888999 v -1.74272 c -0.945444,-0.0282 -1.785054,-0.23284 -2.69522,-0.67028 l 0.296333,-0.79728 c 0.973666,0.4445 1.85561,0.67028 2.638776,0.67028 2.067276,0 2.37772,-1.0795 2.37772,-1.72155 0,-1.69334 -1.121832,-2.19428 -2.109609,-2.72345 -0.762,-0.40922 -1.446388,-0.77611 -1.446388,-1.86266 0,-0.81139 0.557388,-1.17828 1.587499,-1.17828 0.825499,0 1.580443,0.23989 2.448276,0.67733 l 0.705555,-1.91205 c -0.712611,-0.35983 -1.340555,-0.62089 -2.321276,-0.71261 v -1.778 h -2.074332 v 1.88383 c -1.404055,0.35278 -2.420054,1.35467 -2.420054,3.02683 0,1.62984 0.8255,2.80811 2.328332,3.47839 l 0.204611,-0.55739 c -1.093611,-0.50094 -1.940277,-1.38289 -1.940277,-2.921 0,-1.86972 1.446388,-2.40594 2.420054,-2.53294 v -1.78505 h 0.888999 v 1.74272 c 0.980722,0.0212 1.594555,0.19755 2.17311,0.45861 l -0.296333,0.80433 c -0.754944,-0.3175 -1.425221,-0.46567 -2.116665,-0.46567 -2.024943,0 -2.180165,1.31234 -2.180165,1.77095 0,1.38289 0.860777,1.89794 1.742721,2.37772 0.945443,0.51505 1.813276,0.84666 1.813276,2.20839 0,0.79727 -0.663222,1.12888 -1.785054,1.12888 -0.952499,0 -1.996721,-0.38805 -2.963331,-0.90311 l -0.712611,1.91206 c 0.846666,0.45861 1.742721,0.81139 2.843387,0.93839 v 1.77799 h 2.074332 v -1.85561 c 1.566332,-0.33161 2.617609,-1.34055 2.617609,-2.9986 0,-1.98967 -1.008944,-3.16089 -2.843387,-3.90878 z" />
      <path
         id="path40"
         style="font-size:14.1111px;stroke-width:0.264583"
         d="m 101.7603,117.48004 c -0.71261,0.47272 -1.47461,0.87489 -2.391835,0.87489 -1.580443,0 -2.356554,-1.24178 -2.554109,-2.59644 h -0.599722 c 0.225777,1.68627 1.227666,3.1891 3.153831,3.1891 0.839615,0 1.552225,-0.28222 2.158995,-0.62794 l 0.39511,0.75494 c -0.83255,0.45861 -1.67922,0.67734 -2.61055,0.67734 -2.702275,0 -4.035774,-2.27189 -4.035774,-4.74839 v -0.0423 h 1.481665 v -0.15522 c 0,-1.651 0.889,-3.34433 2.469443,-3.34433 1.001886,0 1.488716,0.31044 2.222496,0.83255 l 0.98778,-1.77094 c -0.92428,-0.69145 -1.905,-1.05128 -3.25261,-1.05128 -2.455331,0 -3.972274,1.89794 -4.388552,4.09222 h 0.606778 c 0.388055,-1.88383 1.672165,-3.49955 3.781774,-3.49955 0.96661,0 1.73567,0.19755 2.46944,0.64205 l -0.40922,0.73378 c -0.57855,-0.35983 -1.12889,-0.5715 -2.017886,-0.5715 -1.827388,0 -2.906887,1.72861 -3.040942,3.49955 h -1.488721 c -0.0071,0.14111 -0.01411,0.28928 -0.01411,0.43745 v 0.19755 c 0,2.94217 1.693332,5.34105 4.62844,5.34105 1.389939,0 2.469439,-0.43744 3.393719,-1.05127 z" />
      <path
         id="path42"
         style="font-size:14.1111px;stroke-width:0.264583"
         d="m 106.88924,111.61688 v -1.98967 h -2.07433 v 0.59267 h 1.48166 v 0.80433 h -1.48166 v 9.17222 h 2.07433 v -7.77522 h -0.59267 v 7.18255 h -0.889 v -7.98688 z" />
      <path
         id="path44"
         style="font-size:14.1111px;stroke-width:0.264583"
         d="m 116.22506,116.54165 -4.07106,-6.91444 h -0.69144 l 5.35516,9.09461 v -8.50194 h 0.889 v 9.38388 H 116.345 l -5.88433,-9.97655 h -0.58561 v 10.56922 h 2.07433 v -5.16467 l -0.59266,-1.00894 v 5.58094 h -0.889 v -8.79827 l 5.5386,9.39094 h 2.29306 v -10.56922 h -2.07433 z" />
    </g>
  </g>
  <style id="fade-713fd731-ba89-499b-bde6-25e2f3403baa" data-anikit="">@keyframes fade-713fd731-ba89-499b-bde6-25e2f3403baa
{
  0% {
    animation-timing-function: cubic-bezier(0.2057,0.573,0.3723,0.9184);
    opacity: 1;
  }
  100% {
    opacity: 0;
  }
}</style>
</svg>
